<svg width="251" height="100" viewBox="0 0 251 100" fill="none" xmlns="http://www.w3.org/2000/svg">
<path d="M50 93.75C74.1625 93.75 93.75 74.1625 93.75 50C93.75 25.8375 74.1625 6.25 50 6.25C25.8375 6.25 6.25 25.8375 6.25 50C6.25 74.1625 25.8375 93.75 50 93.75Z" fill="url(#paint0_linear_24_58)"/>
<path d="M71.8331 31.9025C72.2225 29.3854 69.8294 27.3986 67.5912 28.3812L23.0151 47.9525C21.4101 48.6572 21.5275 51.0884 23.1921 51.6184L32.3847 54.5459C34.1394 55.1047 36.0391 54.8156 37.5712 53.7572L58.2969 39.4384C58.9219 39.0066 59.6031 39.8953 59.069 40.4456L44.1503 55.8269C42.7031 57.3191 42.9903 59.8475 44.7312 60.9391L61.4344 71.4134C63.3078 72.5881 65.7178 71.4081 66.0681 69.1441L71.8331 31.9025Z" fill="white"/>
<path d="M204.125 0C178.187 0 157.25 20.9375 157.25 46.875C157.25 57.5 160.687 67.5 167.25 75.625L160.687 95.625C160.375 96.875 160.688 98.125 161.625 99.0625C161.938 99.6875 162.875 100 163.5 100C163.813 100 164.438 100 164.75 99.6875L186.313 90C191.938 92.5 197.875 93.75 204.125 93.75C230.063 93.75 251 72.8125 251 46.875C251 20.9375 230.063 0 204.125 0Z" fill="#25D366"/>
<path d="M231.313 64.0625C230.063 67.8125 225.375 70.9375 221.312 71.5625C220.375 71.875 219.438 71.875 218.188 71.875C215.687 71.875 211.937 71.25 205.375 68.4375C197.875 65.3125 190.375 58.75 184.437 50.3125V50C182.562 47.1875 179.125 41.875 179.125 36.25C179.125 29.375 182.562 25.9375 183.812 24.375C185.375 22.8125 187.562 21.875 190.062 21.875C190.688 21.875 191 21.875 191.625 21.875C193.812 21.875 195.375 22.5 196.937 25.625L198.188 28.125C199.125 30.625 200.375 33.4375 200.687 33.75C201.625 35.625 201.625 37.1875 200.687 38.75C200.375 39.6875 199.75 40.3125 199.125 40.9375C198.812 41.5625 198.5 41.875 198.188 41.875C197.875 42.1875 197.875 42.1875 197.562 42.5C198.5 44.0625 200.375 46.875 202.875 49.0625C206.625 52.5 209.438 53.4375 211 54.0625C211.625 53.4375 212.25 52.1875 213.187 51.25L213.5 50.625C215.062 48.4375 217.563 47.8125 220.063 48.75C221.313 49.375 228.188 52.5 228.188 52.5L228.812 52.8125C229.75 53.4375 231 53.75 231.625 55C232.875 57.8125 231.938 61.875 231.313 64.0625Z" fill="white"/>
<defs>
<linearGradient id="paint0_linear_24_58" x1="50" y1="6.25" x2="50" y2="93.75" gradientUnits="userSpaceOnUse">
<stop stop-color="#37BBFE"/>
<stop offset="1" stop-color="#007DBB"/>
</linearGradient>
</defs>
</svg>
